<?xml version="1.0" encoding="utf-8"?>
<!-- Generator: Adobe Illustrator 23.0.3, SVG Export Plug-In . SVG Version: 6.00 Build 0)  -->
<svg version="1.1" id="OBJECTS" xmlns="http://www.w3.org/2000/svg" xmlns:xlink="http://www.w3.org/1999/xlink" x="0px" y="0px"
	 viewBox="0 0 268.3 204.9" style="enable-background:new 0 0 268.3 204.9;" xml:space="preserve">
<style type="text/css">
	.st0{fill:#FFC536;stroke:#000000;stroke-miterlimit:10;}
	.st1{fill:#FFC536;stroke:#000000;stroke-width:4;stroke-miterlimit:10;}
</style>
<g>
	<g>
		<path d="M65.7,171.1c0,1.8-1.3,3.2-3.1,3.5l0,0.1c1.8,0.3,3.1,1.6,3.1,3.4l0,9c0,4.6-2.5,7-7,7l-11.7,0c-0.5,0-0.8-0.3-0.8-0.8
			l-0.1-37.4c0-0.5,0.3-0.8,0.8-0.8l11.7,0c4.6,0,7.1,2.4,7.1,7L65.7,171.1z M59.2,163.5c0-1.3-0.6-1.9-2-1.9l-4.4,0l0,9.8l4.4,0
			c1.3,0,1.9-0.7,1.9-1.9L59.2,163.5z M59.2,179.7c0-1.3-0.6-1.9-2-1.9l-4.4,0l0,9.8l4.4,0c1.3,0,1.9-0.6,1.9-2L59.2,179.7z"/>
		<path d="M87.8,155c0.5,0,1,0.4,1,1l0.1,30.9c0,4.6-2.4,7-7,7l-5.5,0c-4.6,0-7-2.4-7-7l-0.1-30.9c0-0.5,0.4-1,1-1l4.7,0
			c0.5,0,1,0.4,1,1l0.1,29.6c0,1.3,0.7,1.9,2,1.9l2.5,0c1.3,0,1.9-0.6,1.9-2L82.3,156c0-0.5,0.4-1,1-1L87.8,155z"/>
		<path d="M98.2,155c0.5,0,0.8,0.3,0.8,0.8l0.1,37.4c0,0.5-0.3,0.8-0.8,0.8l-5.1,0c-0.5,0-0.8-0.3-0.8-0.8l-0.1-37.4
			c0-0.5,0.2-0.8,0.8-0.8L98.2,155z"/>
		<path d="M109.4,187.5l11.6,0c0.5,0,0.8,0.3,0.8,0.8l0,4.9c0,0.5-0.2,0.8-0.8,0.8l-17.4,0.1c-0.5,0-0.8-0.2-0.8-0.8l-0.1-37.4
			c0-0.5,0.3-0.8,0.8-0.8l5.1,0c0.5,0,0.8,0.3,0.8,0.8L109.4,187.5z"/>
		<path d="M125.3,155.7c0-0.5,0.2-0.8,0.8-0.8l11.7,0c4.6,0,7,2.5,7,7l0.1,24.9c0,4.6-2.4,7-7,7l-11.7,0c-0.5,0-0.8-0.2-0.8-0.8
			L125.3,155.7z M136.5,187.4c1.3,0,1.9-0.6,1.9-2l-0.1-22.1c0-1.3-0.7-2-2-2l-4.5,0l0.1,26.1L136.5,187.4z"/>
		<path d="M172.2,155.5c0-0.5,0.3-0.8,0.8-0.8l5,0c0.6,0,0.8,0.3,0.8,0.8l0.1,37.4c0,0.5-0.2,0.8-0.8,0.8l-5,0
			c-0.5,0-0.8-0.3-0.8-0.8l-0.1-15.5l-6.2,0l0.1,15.5c0,0.5-0.3,0.8-0.8,0.8l-5,0c-0.6,0-0.8-0.3-0.8-0.8l-0.1-37.4
			c0-0.5,0.2-0.8,0.8-0.8l5,0c0.5,0,0.8,0.3,0.8,0.8l0,15.5l6.2,0L172.2,155.5z"/>
		<path d="M201,154.7c0.5,0,1,0.4,1,1l0.1,30.9c0,4.6-2.4,7-7,7l-5.4,0c-4.6,0-7-2.4-7-7l-0.1-30.9c0-0.5,0.4-1,1-1l4.7,0
			c0.5,0,1,0.4,1,1l0.1,29.6c0,1.3,0.7,1.9,2,1.9l2.5,0c1.3,0,1.9-0.6,1.9-2l-0.1-29.6c0-0.5,0.4-1,1-1L201,154.7z"/>
		<path d="M225.2,170.5c0,1.8-1.3,3.2-3.1,3.5v0.1c1.8,0.3,3.1,1.6,3.1,3.4l0,9c0,4.6-2.5,7-7,7l-11.7,0c-0.5,0-0.8-0.3-0.8-0.8
			l-0.1-37.4c0-0.5,0.3-0.8,0.8-0.8l11.7,0c4.6,0,7.1,2.4,7.1,7L225.2,170.5z M218.7,163c0-1.3-0.6-1.9-2-1.9l-4.4,0l0,9.8l4.4,0
			c1.3,0,1.9-0.7,1.9-1.9L218.7,163z M218.7,179.2c0-1.3-0.6-1.9-2-1.9l-4.4,0l0,9.8l4.4,0c1.3,0,1.9-0.6,1.9-2L218.7,179.2z"/>
	</g>
	<g>
		<path class="st0" d="M222.6,37.4c0-6.2,0-12.5,0-18.7c0-3.8,0-7.5,0-11.3c0-0.6,0-1.1,0-1.7c0-0.2,0.1-0.8,0-1
			c-0.1-0.3-0.1-0.2-0.6-0.2c-6.5,0-13,0-19.5,0c-7.6,0-15.2,0-22.7,0c-0.6,0-1.6-0.2-2.2,0c-0.4,0.2-0.2,0.8-0.2,1.3
			c0,3.8,0,7.7,0,11.5c0,0.3,0,0.6,0,0.9c-8.2-3.5-16.4-6.9-24.6-10.4c-4.8-2-9.6-4.1-14.4-6.1c-0.7-0.3-1.4-0.6-2-0.9
			c-0.3-0.1-0.7-0.4-1.1-0.4c-0.2,0-0.4,0.1-0.7,0.2c-5.7,2.4-11.5,4.8-17.2,7.3c-10.6,4.5-21.2,8.9-31.7,13.4
			c-11.3,4.8-22.6,9.6-33.9,14.3c-7.7,3.2-15.4,6.5-23,9.7c-0.9,0.4-1.8,0.7-2.6,1.1c-0.2,0.1-0.8,0.2-0.9,0.4c-0.1,0.2,0,0.9,0,1.2
			c0,1.1,0,2.3,0,3.4c0,9.8,0,19.5,0,29.3c0,12.2,0,24.4,0,36.7c0,4.7,0,9.4,0,14.1c0,1.5,0,3,0,4.5c0,0.8-0.1,1.7,0,2.6
			c0,0.1,0,0.3,0,0.4c0.1,0.1,1.2,0,1.4,0c2.9,0,5.7,0,8.6,0c1.3,0,2.5,0,3.8,0c0.2,0,1,0.1,1.1,0c0.2-0.2,0-1.4,0-1.6
			c0-8.8,0-17.7,0-26.5c0-12.1,0-24.3,0-36.4c0-4.3,0-8.6,0-12.9c0-1.2,0-2.4,0-3.6c0-0.2-0.1-0.9,0-1c0.2-0.2,1-0.4,1.3-0.5
			c1.1-0.4,2.1-0.9,3.2-1.3c3.6-1.5,7.2-3,10.8-4.6c10.7-4.5,21.4-9.1,32.1-13.6c10.8-4.6,21.6-9.1,32.3-13.7
			c3.6-1.5,7.2-3,10.8-4.6c1.1-0.4,2.1-0.9,3.2-1.3c0.3-0.1,0.9-0.5,1.3-0.5c0.4,0,0.9,0.4,1.3,0.5c1.4,0.6,2.7,1.2,4.1,1.7
			c4.8,2,9.6,4,14.3,6.1c10.5,4.5,21.1,8.9,31.6,13.4c1.9,0.8,3.9,1.6,5.8,2.5c0-5.5,0-11,0-16.5c0-1.3,0-2.5,0-3.8
			c0-0.4-0.1-0.8,0.1-1c0.2-0.1,0.9,0,1.1,0c0.6,0,1.3,0,1.9,0c1.8,0,3.5,0,5.3,0c1.6,0,3.2,0,4.9,0c0.3,0,1.8-0.2,2,0
			c0.2,0.2,0,1.2,0,1.5c0,1.2,0,2.4,0,3.6c0,6.7,0,13.3,0,20c0,0.8-0.1,1.7,0,2.5c0.1,0.4,0,0.3,0.4,0.5c2.2,1.1,4.6,2,6.9,2.9
			c3.3,1.4,6.6,2.8,9.9,4.2c1.2,0.5,2.5,1,3.7,1.6c0.3,0.1,1.5,0.4,1.7,0.7c0.2,0.3,0,1.3,0,1.7c0,1.7,0,3.3,0,5c0,5.7,0,11.4,0,17
			c0,7.2,0,14.4,0,21.6c0,6.9,0,13.7,0,20.6c0,4.6,0,9.2,0,13.7c0,0.6,0,1.1,0,1.7c0,0.1-0.1,0.7,0,0.8c0.1,0.2,0.8,0.1,1,0.1
			c1.4,0,2.9,0,4.3,0c1.8,0,3.6,0,5.4,0c1.2,0,2.5,0.1,3.7,0c0.4,0,0.3,0.1,0.4-0.2c0.1-0.2,0-0.7,0-0.9c0-3.6,0-7.2,0-10.8
			c0-6.2,0-12.4,0-18.6c0-7.3,0-14.6,0-21.9c0-6.9,0-13.7,0-20.6c0-4.9,0-9.8,0-14.7c0-1.2,0-2.5,0-3.7c0-0.8,0.1-0.7-0.7-1
			c-5.7-2.4-11.4-4.8-17.2-7.3C225.7,38.7,224.1,38.1,222.6,37.4z"/>
		<path class="st0" d="M210.9,71.9c-2.2,1.8-4.4,3.6-6.6,5.4c-1.4,1.1-2.7,2.2-4.1,3.3c-0.3,0.3-0.7,0.7-1.1,0.9
			c-0.7,0.3-2-0.1-2.8-0.1c-0.5,0-1.2,0-1.6-0.2c-0.2-0.1-0.4-0.5-0.6-0.7c-0.6-0.7-1.3-1.4-1.9-2.1c-0.4-0.4-1-0.9-1.1-1.4
			c-0.1-0.7,0.1-1.7,0.1-2.4c0-0.4-0.1-1.4,0.1-1.7c0.1-0.2,0.5-0.4,0.7-0.6c0.5-0.4,1-0.9,1.4-1.3c1.4-1.2,2.8-2.5,4.1-3.7
			c2.3-2.1,4.7-4.2,7-6.3c-4.8-2.1-10.5-2.9-15.6-2c-4.4,0.8-8.2,3.3-10.8,7c-2.7,3.9-3.7,8.5-4.5,13.1c-0.5,2.4-0.9,4.8-1.4,7.1
			c-0.2,1.2-0.3,2.8-0.8,4c-0.2,0.4-0.6,0.8-0.8,1.2c-0.7,1-1.4,2.1-2.1,3.1c-5.1,7.5-10.3,15.1-15.4,22.6
			c-2.5,3.7-5.1,7.4-7.6,11.1c-0.9,1.3-1.7,2.6-2.6,3.8c-0.5,0.7-0.9,1.5-1.5,2.1c-0.1,0.1-0.1,0.2-0.2,0.3c0-4.7,0-9.4,0-14.1
			c0-9,0-18.1,0-27.1c0-5.5-0.1-11,0-16.6c0-0.9,0-1.8,0-2.7c0-1.3-0.4-3.5,0.3-4.7c1.4-2.4,5.8-2.9,8.3-2.4
			c1.6,0.3,5.3,1.1,5.6,3.1c0.3,1.8,0,3.8,0,5.6c0,0.3-0.1,0.7,0.1,0.9c0.3,0.2,1.2,0,1.6,0c4,0,8.1,0,12.1-0.1c0.3,0,0.6,0,0.9,0
			c0-6.6-0.1-13.2-0.1-19.8c0-3.6,0-7.3-0.1-10.9c0-0.2,0.2-1.6,0-1.8c-0.2-0.2-1.5,0-1.8,0c-1.1,0-2.1,0-3.2,0
			c-3.3,0-6.5,0-9.8,0.1c0,1.6,0,3.2,0,4.8c0,0.6,0.1,1.2,0,1.8c-0.2,1-1.3,1.6-2.1,2c-2.6,1.2-5.4,1.6-8.2,0.9
			c-1.3-0.3-2.8-0.9-3.5-2c-0.4-0.6-0.4-1.2-0.4-1.9c0-1.8,0-3.6,0-5.4c-5.2,0.1-10.4,0-15.7,0.2c-10,0.5-19.3,6-24.6,14.5
			c-3,4.9-4.6,10.5-4.6,16.3c1.8,0,3.7,0,5.5,0c0.1,0,0.7,0.1,0.8,0c0.2-0.2,0.1-1.7,0.1-2c0.1-1.4,0.4-2.8,0.8-4.1
			c1.3-4.2,4.5-7.4,8.8-8.5c3.1-0.8,7-0.7,9.7,1.2c2.7,1.9,2,5.3,2,8.2c0,4.7,0,9.4,0,14.1c0,9.1,0,18.2,0,27.2c0,4.2,0,8.5,0,12.7
			c0,1.5,0,2.9,0,4.4c0,0.8,0.1,1.7,0,2.4c0,0.1,0,0.2,0,0.3c-2.7-4.5-5.4-8.9-8.1-13.4c-0.4-0.6-0.8-1.3-1.2-1.9
			c0.4-0.2,1.8-0.8,1.8-1.2c0-0.2-0.4-0.6-0.5-0.8c-0.3-0.5-0.6-1-0.9-1.5c-1-1.7-2-3.4-3-5.1c-3.5,2.1-7,4.2-10.5,6.3
			c-2.2-3.7-4.4-7.4-6.7-11.1c-4.1-6.8-8.2-13.7-12.4-20.5c-1.6-2.6-3.2-5.2-4.7-7.8c-0.5-0.8-0.9-1.6-1.4-2.3
			c-0.1-0.2-0.4-0.5-0.5-0.8c-0.1-0.3,0-0.8-0.1-1.2c-0.1-0.9-0.1-1.8-0.2-2.7c-0.1-1.7-0.1-3.5-0.3-5.2c0-0.3,0-0.3-0.2-0.5
			c-0.3-0.3-1.1-0.4-1.5-0.6c-1.8-0.7-3.5-1.4-5.3-2c-1.5-0.6-2.9-1.2-4.4-1.7c-0.9-0.3-1.9,0.7-2.7,1.2c-0.8,0.5-2.2,0.9-2.3,1.8
			c-0.2,1.6-0.3,3.2-0.4,4.8c-0.2,1.9-0.3,3.8-0.5,5.7c0,0.4-0.2,1.2-0.1,1.6c0.1,0.3,0,0.2,0.3,0.4c1.4,1,3.1,1.8,4.5,2.6
			c0.7,0.4,1.4,0.8,2.2,1.3c0.3,0.1,0.6,0.3,0.8,0.5c0.2,0.2,0.4,0.7,0.6,0.9c0.5,0.8,1,1.6,1.4,2.4c1.6,2.7,3.2,5.3,4.8,8
			c4.1,6.9,8.3,13.7,12.4,20.6c1.6,2.6,3.1,5.2,4.7,7.7c0.4,0.7,0.9,1.5,1.3,2.2c0.1,0.1,0.5,0.6,0.4,0.7c0,0.2-0.9,0.5-1,0.6
			c-0.7,0.4-1.4,0.8-2,1.2c-1.7,1-3.4,2.1-5.1,3.1c-0.4,0.2-2.2,1-2.2,1.4c0,0.3,0.7,1.2,0.9,1.5c0.5,0.8,1,1.7,1.5,2.5
			c0.7,1.1,1.3,2.3,2,3.4c0.5-0.3,1.1-0.9,1.7-1c0.4-0.1,0.3,0,0.5,0.4c0.8,1.4,1.6,2.7,2.5,4.1c0.4,0.6,0.8,1.3,1.2,1.9
			c0.1,0.1,0.2,0.5,0.4,0.6c0.2,0.1,0.9,0,1.2,0c5.7,0,11.5,0,17.2,0c5.8,0,11.7,0,17.5,0c3.5,0,7,0,10.5,0c5.7,0,11.5,0,17.2,0
			c1.3,0,2.5,0,3.8,0c0.3,0,1,0.1,1.2,0c0.2-0.1,0.4-0.6,0.5-0.8c0.4-0.7,0.8-1.4,1.2-2c3.2-5.2,6.4-10.5,9.6-15.7
			c3.4-5.5,6.8-11.1,10.1-16.6c0.8-1.3,1.5-2.9,2.5-4.1c0.6-0.7,2.1-0.6,3-0.7c6.2-1,12.4-2,18.6-3c0.5-0.1,1-0.2,1.5-0.2
			c-1-1.3-2-2.5-2.9-3.8c-0.2-0.2-1-1-1-1.2c0-0.1,0.5-0.5,0.6-0.6c2.9-2.9,5.5-6.4,6.8-10.3C212.1,77.3,212.2,74.4,210.9,71.9z"/>
	</g>
	<line class="st1" x1="0" y1="145.5" x2="268.3" y2="145.5"/>
	<line class="st1" x1="0" y1="202.9" x2="268.3" y2="202.9"/>
</g>
<g>
</g>
<g>
</g>
<g>
</g>
<g>
</g>
<g>
</g>
</svg>
